<svg width="96" height="37" viewBox="0 0 96 37" fill="none" xmlns="http://www.w3.org/2000/svg">
<path fill-rule="evenodd" clip-rule="evenodd" d="M0.0242048 30.8746C0.295572 30.9512 4.63523 30.9353 5.1511 30.8925L5.16615 23.047C5.52709 22.9667 9.15667 23.0048 9.53916 23.0767C10.7446 23.303 11.6142 24.0139 12.1153 24.971L15.1168 30.8766L20.7893 30.908C20.769 30.6174 20.4478 30.0989 20.3055 29.8235L16.8663 22.8499C17.4018 22.5975 17.6252 22.7184 18.698 22.0993C20.239 21.2102 21.525 19.5601 21.9252 17.6022C22.8509 13.0734 19.5554 9.18352 15.2917 9.18486L5.09827 9.1901C4.11728 9.18981 0.741947 9.14221 0.0399939 9.19968C-0.0472153 10.3566 0.0683258 10.2805 0.176932 11.0234L0.68484 12.3512C0.9112 12.7357 1.45054 13.2412 1.81473 13.4942C2.36306 13.8751 2.98105 13.9457 3.37106 14.1147L4.48176 14.2994C4.76169 14.3098 5.05459 14.3095 5.33304 14.3298C7.1181 14.46 14.9535 14.2732 15.633 14.4134C17.2245 14.7421 17.3696 16.7935 16.2128 17.5119C15.7887 17.7752 15.469 17.8064 14.8196 17.8105C10.1961 17.8396 5.56929 17.8246 0.945287 17.8301C-0.123948 17.8315 0.0175645 17.6004 0.0194828 18.6381L0.0206632 27.3972C0.0104815 28.5186 -0.0216871 29.7636 0.0242048 30.8746Z" fill="#5E239D"/>
<path fill-rule="evenodd" clip-rule="evenodd" d="M58.6676 30.0531C59.2043 29.4494 66.8313 15.7456 67.5653 14.4208C68.1519 13.3618 70.3239 9.86819 70.4516 9.16786L62.9491 9.15843L58.7073 16.5935C58.2011 16.167 54.8508 10.0889 54.3543 9.18298L46.8604 9.15663C46.9401 9.69858 58.3377 29.7483 58.6676 30.0531Z" fill="#5E239D"/>
<path fill-rule="evenodd" clip-rule="evenodd" d="M83.9462 30.0531C84.483 29.4494 92.11 15.7456 92.844 14.4208C93.4307 13.3618 95.6027 9.86819 95.7302 9.16786L88.2277 9.15843L83.986 16.5935C83.4799 16.167 80.1296 10.0889 79.6331 9.18298L72.1391 9.15663C72.2188 9.69858 83.6163 29.7483 83.9462 30.0531Z" fill="#5E239D"/>
<path d="M36.3247 29.5711C34.6859 29.5711 33.1655 29.3007 31.7636 28.76C30.3814 28.2193 29.177 27.4583 28.1503 26.477C27.1432 25.4957 26.3534 24.3441 25.7808 23.0224C25.228 21.7007 24.9516 20.2588 24.9516 18.6967C24.9516 17.1346 25.228 15.6928 25.7808 14.371C26.3534 13.0492 27.1531 11.8977 28.1798 10.9165C29.2066 9.93518 30.4111 9.17414 31.7932 8.63343C33.1753 8.09271 34.676 7.82236 36.295 7.82236C37.9339 7.82236 39.4345 8.09271 40.7969 8.63343C42.179 9.17414 43.3737 9.93518 44.3806 10.9165C45.4073 11.8977 46.207 13.0492 46.7796 14.371C47.3522 15.6727 47.6386 17.1146 47.6386 18.6967C47.6386 20.2588 47.3522 21.7107 46.7796 23.0525C46.207 24.3742 45.4073 25.5257 44.3806 26.507C43.3737 27.4683 42.179 28.2193 40.7969 28.76C39.4345 29.3007 37.9437 29.5711 36.3247 29.5711ZM36.295 25.4256C37.223 25.4256 38.0721 25.2654 38.8422 24.9449C39.632 24.6246 40.323 24.1639 40.9154 23.5632C41.5077 22.9623 41.9619 22.2514 42.2777 21.4303C42.6134 20.6092 42.7812 19.698 42.7812 18.6967C42.7812 17.6953 42.6134 16.7842 42.2777 15.9631C41.9619 15.1421 41.5077 14.4311 40.9154 13.8303C40.3428 13.2294 39.6615 12.7689 38.8717 12.4485C38.082 12.128 37.223 11.9678 36.295 11.9678C35.3671 11.9678 34.5082 12.128 33.7184 12.4485C32.9483 12.7689 32.267 13.2294 31.6747 13.8303C31.0824 14.4311 30.6183 15.1421 30.2827 15.9631C29.9668 16.7842 29.8089 17.6953 29.8089 18.6967C29.8089 19.678 29.9668 20.5892 30.2827 21.4303C30.6183 22.2514 31.0725 22.9623 31.6452 23.5632C32.2375 24.1639 32.9285 24.6246 33.7184 24.9449C34.5082 25.2654 35.3671 25.4256 36.295 25.4256Z" fill="#5E239D"/>
</svg>
