<svg width="190" height="72" viewBox="0 0 190 72" fill="none" xmlns="http://www.w3.org/2000/svg">
<path fill-rule="evenodd" clip-rule="evenodd" d="M0.0479053 60.08C0.584985 60.2291 9.17388 60.1982 10.1949 60.1149L10.2247 44.848C10.939 44.6917 18.1226 44.766 18.8796 44.9058C21.2654 45.3461 22.9864 46.7295 23.9782 48.592L29.9187 60.084L41.1455 60.145C41.1054 59.5796 40.4696 58.5707 40.188 58.0346L33.3813 44.4645C34.4411 43.9732 34.8832 44.2085 37.0065 43.0039C40.0564 41.2736 42.6016 38.0628 43.3937 34.2527C45.2257 25.4399 38.7034 17.8704 30.2649 17.873L10.0903 17.8832C8.14878 17.8827 1.46844 17.79 0.0791546 17.9019C-0.0934469 20.1532 0.135228 20.0052 0.350178 21.4507L1.35541 24.0345C1.80342 24.7828 2.87086 25.7665 3.59165 26.2588C4.67689 27 5.89999 27.1373 6.67189 27.4663L8.87015 27.8257C9.42417 27.846 10.0039 27.8452 10.555 27.8848C14.0879 28.1381 29.5955 27.7747 30.9404 28.0476C34.0902 28.6871 34.3773 32.6791 32.0878 34.077C31.2485 34.5894 30.6157 34.6502 29.3305 34.6581C20.1797 34.7146 11.0225 34.6854 1.87088 34.6962C-0.245313 34.6989 0.034763 34.2492 0.0385598 36.2685L0.040896 53.3133C0.0207446 55.4955 -0.0429223 57.9181 0.0479053 60.08Z" fill="#FF6A00"/>
<path fill-rule="evenodd" clip-rule="evenodd" d="M116.113 58.4817C117.175 57.3069 132.27 30.6402 133.723 28.0622C134.884 26.0013 139.183 19.203 139.435 17.8402L124.587 17.8219L116.191 32.2901C115.19 31.4601 108.559 19.6326 107.576 17.8696L92.7445 17.8184C92.9022 18.873 115.46 57.8886 116.113 58.4817Z" fill="#FF6A00"/>
<path fill-rule="evenodd" clip-rule="evenodd" d="M166.144 58.4817C167.206 57.3069 182.301 30.6402 183.754 28.0622C184.915 26.0013 189.214 19.203 189.466 17.8402L174.617 17.8219L166.222 32.2901C165.221 31.4601 158.59 19.6326 157.607 17.8696L142.775 17.8184C142.933 18.873 165.491 57.8886 166.144 58.4817Z" fill="#FF6A00"/>
<path d="M71.8926 57.5435C68.6491 57.5435 65.6401 57.0174 62.8655 55.9652C60.1299 54.9131 57.7461 53.4321 55.7141 51.5226C53.721 49.6131 52.1579 47.3722 51.0245 44.8001C49.9305 42.2282 49.3833 39.4223 49.3833 36.3825C49.3833 33.3428 49.9305 30.5371 51.0245 27.965C52.1579 25.3929 53.7406 23.1522 55.7726 21.2426C57.8047 19.3331 60.1886 17.8522 62.924 16.8C65.6594 15.7478 68.6295 15.2217 71.8339 15.2217C75.0776 15.2217 78.0474 15.7478 80.7439 16.8C83.4794 17.8522 85.8437 19.3331 87.8366 21.2426C89.8687 23.1522 91.4514 25.3929 92.5847 27.965C93.7179 30.4981 94.2847 33.304 94.2847 36.3825C94.2847 39.4223 93.7179 42.2477 92.5847 44.8586C91.4514 47.4307 89.8687 49.6715 87.8366 51.581C85.8437 53.4517 83.4794 54.9131 80.7439 55.9652C78.0474 57.0174 75.0969 57.5435 71.8926 57.5435ZM71.8339 49.4767C73.6706 49.4767 75.351 49.1648 76.8751 48.5413C78.4383 47.9179 79.8059 47.0215 80.9784 45.8524C82.1507 44.6832 83.0496 43.2998 83.6747 41.702C84.3391 40.1042 84.6712 38.3311 84.6712 36.3825C84.6712 34.434 84.3391 32.6609 83.6747 31.0631C83.0496 29.4654 82.1507 28.0819 80.9784 26.9128C79.845 25.7436 78.4968 24.8474 76.9337 24.2238C75.3705 23.6003 73.6706 23.2886 71.8339 23.2886C69.9973 23.2886 68.2974 23.6003 66.7343 24.2238C65.2101 24.8474 63.8619 25.7436 62.6896 26.9128C61.5173 28.0819 60.5988 29.4654 59.9346 31.0631C59.3093 32.6609 58.9967 34.434 58.9967 36.3825C58.9967 38.2921 59.3093 40.0653 59.9346 41.702C60.5988 43.2998 61.4977 44.6832 62.631 45.8524C63.8033 47.0215 65.171 47.9179 66.7343 48.5413C68.2974 49.1648 69.9973 49.4767 71.8339 49.4767Z" fill="#FF6A00"/>
</svg>
